#!OML:ASF F:\VICON\USERDATA\INSTALL\rory3\rory3.ASF
:FULLY-SPECIFIED
:DEGREES
1012
root -4.19295 18.6691 -3.08693 356.048 -34.2211 -353.654
lowerback 12.4709 0.916656 0.261475
upperback 3.37716 1.21887 0.480388
thorax -3.45397 0.582959 0.16914
lowerneck -11.2028 0.00536178 -4.57392
upperneck 3.82664 0.424116 3.38076
head 3.2326 0.27375 1.96723
rclavicle -4.37326e-015 3.26007e-014
rhumerus -41.8733 6.62799 -70.3795
rradius 37.0912
rwrist 16.8165
rhand -39.3731 14.0624
rfingers 7.12502
rthumb -12.3634 -15.552
lclavicle -4.37326e-015 3.26007e-014
lhumerus -45.5576 8.93724 71.4871
lradius 25.6852
lwrist -16.723
lhand -24.4005 21.8407
lfingers 7.12502
lthumb 2.09061 51.8102
rfemur -11.3179 12.6185 14.2968
rtibia 31.4406
rfoot -20.1675 -18.4521
rtoes 2.02197
lfemur -6.04561 -3.86772 -9.29252
ltibia 22.4996
lfoot -2.12994 12.4851
ltoes -9.77193
1013
root -4.2333 18.6877 -3.08235 356.157 -33.9407 -353.612
lowerback 12.1808 0.825801 0.34543
upperback 3.29455 1.10524 0.344005
thorax -3.3771 0.527723 0.000527886
lowerneck -11.0751 -0.0216722 -4.71165
upperneck 3.70258 0.389906 3.58515
head 3.16891 0.262762 2.05621
rclavicle 1.21259e-014 7.95139e-015
rhumerus -41.7586 6.36016 -70.4283
rradius 37.0977
rwrist 16.9367
rhand -38.7709 11.9786
rfingers 7.12502
rthumb -11.7828 -17.67
lclavicle 1.21259e-014 7.95139e-015
lhumerus -45.5529 9.31786 71.2551
lradius 24.9633
lwrist -17.7582
lhand -25.3222 21.0979
lfingers 7.12502
lthumb 1.2004 51.0743
rfemur -10.9893 12.4192 14.356
rtibia 30.8946
rfoot -20.0644 -18.6506
rtoes 2.0057
lfemur -6.29957 -4.00627 -9.30399
ltibia 22.6466
lfoot -1.69631 12.6899
ltoes -10.2039
1014
root -4.27689 18.7044 -3.08031 356.24 -33.8185 -353.596
lowerback 11.9127 0.782679 0.344551
upperback 3.2233 1.04595 0.260524
thorax -3.30333 0.499478 -0.0739012
lowerneck -10.9933 -0.0868715 -4.72403
upperneck 3.65192 0.306502 3.51584
head 3.13915 0.218026 2.02812
rclavicle 8.62725e-014 -1.51076e-014
rhumerus -41.5629 6.20603 -70.4567
rradius 37.03
rwrist 16.9685
rhand -39.7248 13.8309
rfingers 7.12502
rthumb -12.7025 -15.7628
lclavicle 8.62725e-014 -1.51076e-014
lhumerus -45.5677 9.88142 70.9673
lradius 24.3798
lwrist -18.4391
lhand -25.4061 20.8186
lfingers 7.12502
lthumb 1.11931 50.7954
rfemur -10.6797 12.4572 14.4846
rtibia 30.3672
rfoot -19.9161 -18.9316
rtoes 2.09661
lfemur -6.50802 -4.0929 -9.25077
ltibia 22.8424
lfoot -1.43308 12.9757
ltoes -9.27177
1015
root -4.32649 18.7198 -3.08051 356.221 -33.952 -353.684
lowerback 11.8447 0.851726 0.269758
upperback 3.17689 1.12854 0.246143
thorax -3.31538 0.54101 -0.0580933
lowerneck -11.1036 -0.154132 -4.72167
upperneck 3.85689 0.224693 3.42667
head 3.23461 0.173376 1.99699
rclavicle 2.56432e-014 -3.18055e-015
rhumerus -41.3943 6.07182 -70.4546
rradius 37.0123
rwrist 16.8766
rhand -39.3541 13.4574
rfingers 7.12502
rthumb -12.3451 -16.1581
lclavicle 2.56432e-014 -3.18055e-015
lhumerus -45.6414 10.4168 70.7133
lradius 24.1306
lwrist -18.4532
lhand -25.253 20.7485
lfingers 7.12502
lthumb 1.26718 50.7244
rfemur -10.2703 12.7777 14.7925
rtibia 29.8695
rfoot -19.7709 -19.1928
rtoes 2.27926
lfemur -6.48555 -4.09144 -9.0823
ltibia 23.0527
lfoot -1.24889 13.3302
ltoes -8.32244
1016
root -4.37332 18.734 -3.07938 356.178 -34.0041 -353.732
lowerback 11.792 0.911881 0.238444
upperback 3.14091 1.20309 0.19611
thorax -3.32343 0.578365 -0.102735
lowerneck -11.1025 -0.235914 -4.79628
upperneck 3.91003 0.125701 3.42388
head 3.25812 0.122528 2.0045
rclavicle -7.43455e-014 1.74931e-014
rhumerus -41.2628 5.83228 -70.4719
rradius 37.0992
rwrist 16.7703
rhand -38.7342 12.0242
rfingers 7.12502
rthumb -11.7474 -17.6263
lclavicle -7.43455e-014 1.74931e-014
lhumerus -45.6215 10.8574 70.4948
lradius 23.8099
lwrist -18.4042
lhand -25.0274 20.918
lfingers 7.12502
lthumb 1.48508 50.8926
rfemur -9.83617 12.9913 15.0452
rtibia 29.3964
rfoot -19.6538 -19.4513
rtoes 2.37042
lfemur -6.4875 -4.0396 -8.97573
ltibia 23.2556
lfoot -0.871934 13.5146
ltoes -8.98599
1017
root -4.41416 18.7484 -3.07638 356.172 -33.9466 -353.669
lowerback 11.6335 0.916025 0.1816
upperback 3.09143 1.19975 0.114225
thorax -3.28761 0.577634 -0.153221
lowerneck -11.0611 -0.27641 -4.83102
upperneck 3.89179 0.0807064 3.3414
head 3.24543 0.0959745 1.97938
rclavicle -7.35503e-015 -7.95139e-016
rhumerus -41.0453 5.63885 -70.499
rradius 37.111
rwrist 16.6017
rhand -38.878 11.6601
rfingers 7.12502
rthumb -11.886 -17.9825
lclavicle -7.35503e-015 -7.95139e-016
lhumerus -45.5963 11.3388 70.2903
lradius 23.4299
lwrist -18.4505
lhand -24.6383 21.3512
lfingers 7.12502
lthumb 1.86088 51.3228
rfemur -9.50737 13.0796 15.1338
rtibia 28.9442
rfoot -19.5461 -19.6944
rtoes 2.47207
lfemur -6.64049 -3.95988 -9.00241
ltibia 23.4668
lfoot -0.447591 13.7091
ltoes -9.33192
1018
root -4.45334 18.7635 -3.07289 356.067 -33.9393 -353.494
lowerback 11.4963 0.950573 0.0389903
upperback 3.04496 1.22585 0.00790676
thorax -3.26135 0.591789 -0.185218
lowerneck -11.0202 -0.29898 -4.88298
upperneck 3.95519 0.0594432 3.28401
head 3.26047 0.0814445 1.9686
rclavicle -1.86858e-014 -3.97569e-015
rhumerus -40.8637 5.47912 -70.516
rradius 37.0707
rwrist 16.4041
rhand -39.2321 12.0541
rfingers 7.12502
rthumb -12.2274 -17.5685
lclavicle -1.86858e-014 -3.97569e-015
lhumerus -45.6151 11.758 70.1275
lradius 23.126
lwrist -18.5205
lhand -24.1373 21.6613
lfingers 7.12502
lthumb 2.34472 51.6281
rfemur -9.16937 13.1197 15.1103
rtibia 28.5139
rfoot -19.4432 -19.7962
rtoes 2.54614
lfemur -6.71431 -3.92552 -9.16743
ltibia 23.699
lfoot -0.0890544 14.08
ltoes -8.60383
1019
root -4.49208 18.7755 -3.07264 356.036 -33.8875 -353.477
lowerback 11.4395 0.983099 0.00529361
upperback 2.9571 1.26457 -0.0436394
thorax -3.32115 0.61161 -0.225222
lowerneck -10.8638 -0.365224 -5.07315
upperneck 3.99363 -0.0125076 3.32226
head 3.24906 0.0427422 2.01099
rclavicle -6.02318e-014 -2.38542e-015
rhumerus -40.773 5.28658 -70.4879
rradius 37.0405
rwrist 16.282
rhand -39.1234 11.6417
rfingers 7.12502
rthumb -12.1227 -17.9871
lclavicle -6.02318e-014 -2.38542e-015
lhumerus -45.6396 12.1177 70.008
lradius 22.7822
lwrist -18.4961
lhand -22.8751 22.0397
lfingers 7.12502
lthumb 3.56375 51.9897
rfemur -8.81883 13.2035 15.2516
rtibia 28.0925
rfoot -19.3681 -19.9518
rtoes 2.58151
lfemur -6.8258 -3.9093 -9.16986
ltibia 23.9636
lfoot 0.278957 14.4065
ltoes -7.60935
1020
root -4.53011 18.786 -3.07074 356.139 -33.8047 -353.667
lowerback 11.3899 0.974756 0.143761
upperback 2.86568 1.27047 -0.0593985
thorax -3.38571 0.614156 -0.320529
lowerneck -10.7909 -0.417945 -5.22815
upperneck 4.09089 -0.0697389 3.37909
head 3.27358 0.0127527 2.056
rclavicle 9.62118e-014 -4.21423e-014
rhumerus -40.5615 5.05153 -70.4618
rradius 36.8837
rwrist 16.2408
rhand -39.0694 11.1459
rfingers 7.12502
rthumb -12.0706 -18.486
lclavicle 9.62118e-014 -4.21423e-014
lhumerus -45.6466 12.5716 69.7856
lradius 22.3916
lwrist -18.5356
lhand -21.7314 22.4004
lfingers 7.12502
lthumb 4.66813 52.3289
rfemur -8.45512 13.4256 15.5937
rtibia 27.6631
rfoot -19.4225 -20.2661
rtoes 2.82331
lfemur -7.02376 -3.8803 -8.96054
ltibia 24.2735
lfoot 0.505633 14.6922
ltoes -6.56363
1021
root -4.56724 18.7984 -3.06885 356.219 -33.7045 -353.801
lowerback 11.3085 0.973295 0.261305
upperback 2.83807 1.27981 -0.132751
thorax -3.36536 0.618384 -0.462996
lowerneck -10.9902 -0.484672 -5.23918
upperneck 4.31868 -0.153517 3.42971
head 3.39654 -0.027301 2.07559
rclavicle -3.97569e-015 -6.36111e-015
rhumerus -40.225 4.64403 -70.4891
rradius 36.7191
rwrist 16.1336
rhand -39.0284 10.8452
rfingers 7.12502
rthumb -12.0311 -18.789
lclavicle -3.97569e-015 -6.36111e-015
lhumerus -45.5622 12.9998 69.5086
lradius 22.1506
lwrist -18.6907
lhand -21.4732 22.4248
lfingers 7.12502
lthumb 4.91744 52.3478
rfemur -8.09417 13.6052 15.8751
rtibia 27.2435
rfoot -19.5277 -20.6233
rtoes 3.03979
lfemur -7.24571 -3.88832 -8.80026
ltibia 24.6103
lfoot 0.758205 14.9124
ltoes -6.29112
1022
root -4.6034 18.8098 -3.0715 356.269 -33.5489 -353.818
lowerback 11.2077 0.977905 0.256376
upperback 2.82425 1.28215 -0.226617
thorax -3.32229 0.61993 -0.556268
lowerneck -11.2259 -0.559268 -5.18088
upperneck 4.51521 -0.248949 3.38664
head 3.51508 -0.0753068 2.04935
rclavicle -4.4329e-014 1.90833e-014
rhumerus -39.8667 4.15194 -70.5148
rradius 36.6448
rwrist 15.8585
rhand -38.4156 10.5689
rfingers 7.12502
rthumb -11.4401 -19.099
lclavicle -4.4329e-014 1.90833e-014
lhumerus -45.4267 13.2858 69.3652
lradius 22.0297
lwrist -18.6867
lhand -21.4539 22.5771
lfingers 7.12502
lthumb 4.93612 52.4996
rfemur -7.80864 13.7302 16.0432
rtibia 26.843
rfoot -19.5086 -20.996
rtoes 2.98982
lfemur -7.52289 -3.88278 -8.7569
ltibia 24.9469
lfoot 1.16936 15.0791
ltoes -6.51098
1023
root -4.63997 18.8195 -3.06953 356.21 -33.4714 -353.729
lowerback 11.1059 0.997328 0.165643
upperback 2.79639 1.29441 -0.325867
thorax -3.29491 0.626837 -0.608293
lowerneck -11.1744 -0.591379 -5.15284
upperneck 4.51809 -0.290788 3.28469
head 3.50663 -0.10034 2.0061
rclavicle -5.14852e-014 2.38542e-015
rhumerus -39.5199 3.87698 -70.568
rradius 36.5452
rwrist 15.4516
rhand -37.9306 10.0078
rfingers 7.12502
rthumb -10.9724 -19.6855
lclavicle -5.14852e-014 2.38542e-015
lhumerus -45.4286 13.7534 69.1272
lradius 21.9041
lwrist -18.8025
lhand -21.1646 22.9268
lfingers 7.12502
lthumb 5.21546 52.8426
rfemur -7.48938 13.8624 16.1127
rtibia 26.4645
rfoot -19.4684 -21.2344
rtoes 3.02258
lfemur -7.70455 -3.73193 -8.83856
ltibia 25.2929
lfoot 1.44254 15.2755
ltoes -6.46474
